<?xml version="1.0" encoding="UTF-8"?>
<svg xmlns="http://www.w3.org/2000/svg" xmlns:xlink="http://www.w3.org/1999/xlink" width="108pt" height="24pt" viewBox="0 0 108 24" version="1.1">
<g id="surface1">
<path style=" stroke:none;fill-rule:nonzero;fill:rgb(0%,0%,0%);fill-opacity:1;" d="M 105.820312 0.847656 L 103.671875 1.683594 L 103.671875 8.085938 L 102.832031 7.65625 C 101.5625 7.019531 100.878906 6.863281 99.257812 6.855469 C 98.203125 6.847656 97.78125 6.878906 97.269531 7.011719 C 94.386719 7.753906 92.398438 9.800781 91.582031 12.890625 C 91.375 13.65625 91.359375 13.882812 91.359375 15.390625 C 91.359375 16.902344 91.375 17.128906 91.582031 17.894531 C 92.214844 20.292969 93.644531 22.160156 95.5625 23.109375 C 96.679688 23.667969 97.5625 23.894531 98.828125 23.957031 C 100.453125 24.035156 102.003906 23.667969 103.265625 22.902344 L 103.757812 22.597656 L 103.757812 23.519531 L 104.996094 23.574219 C 105.671875 23.609375 106.625 23.632812 107.117188 23.632812 L 108 23.632812 L 108 11.816406 C 108 5.320312 107.992188 0 107.984375 0 C 107.964844 0.0078125 106.996094 0.382812 105.820312 0.847656 Z M 100.359375 10.8125 C 101.890625 11.066406 102.9375 11.992188 103.464844 13.570312 C 103.664062 14.152344 103.699219 14.40625 103.699219 15.261719 C 103.707031 17.171875 103.074219 18.558594 101.839844 19.359375 C 101.113281 19.839844 100.410156 20.003906 99.347656 19.953125 C 98.542969 19.910156 98.421875 19.882812 97.753906 19.550781 C 96.535156 18.941406 95.761719 17.886719 95.496094 16.429688 C 95.332031 15.585938 95.332031 15.070312 95.503906 14.242188 C 95.816406 12.714844 96.792969 11.519531 98.132812 11.023438 C 98.914062 10.746094 99.554688 10.683594 100.359375 10.8125 Z M 100.359375 10.8125 "/>
<path style=" stroke:none;fill-rule:nonzero;fill:rgb(0%,0%,0%);fill-opacity:1;" d="M 67.050781 2.632812 L 64.992188 3.515625 L 64.992188 7.152344 L 62.046875 7.152344 L 62.046875 11.074219 L 63.5 11.09375 L 64.945312 11.121094 L 64.992188 15.652344 L 65.035156 20.1875 L 65.257812 20.765625 C 65.847656 22.289062 66.773438 23.207031 68.234375 23.695312 C 68.851562 23.902344 69.066406 23.929688 70.140625 23.929688 C 70.890625 23.9375 71.53125 23.894531 71.828125 23.816406 C 72.675781 23.609375 72.605469 23.789062 72.605469 21.664062 L 72.605469 19.789062 L 71.757812 19.847656 C 70.347656 19.945312 69.644531 19.621094 69.402344 18.765625 C 69.351562 18.566406 69.316406 17.023438 69.316406 14.753906 L 69.316406 11.074219 L 72.605469 11.074219 L 72.589844 9.128906 L 72.5625 7.195312 L 70.945312 7.167969 L 69.316406 7.152344 L 69.316406 4.449219 C 69.316406 2.335938 69.292969 1.746094 69.214844 1.753906 C 69.152344 1.761719 68.175781 2.152344 67.050781 2.632812 Z M 67.050781 2.632812 "/>
<path style=" stroke:none;fill-rule:nonzero;fill:rgb(0%,0%,0%);fill-opacity:1;" d="M 54.0625 6.8125 C 52.78125 6.984375 51.757812 7.484375 50.867188 8.378906 L 50.289062 8.957031 L 50.261719 8.074219 L 50.234375 7.195312 L 48.097656 7.167969 L 45.953125 7.152344 L 45.953125 23.546875 L 50.277344 23.546875 L 50.277344 18.984375 C 50.277344 16.484375 50.320312 14.101562 50.367188 13.691406 C 50.519531 12.347656 51.257812 11.292969 52.296875 10.925781 C 52.8125 10.753906 53.84375 10.726562 54.398438 10.882812 C 54.925781 11.039062 55.515625 11.476562 55.800781 11.929688 C 56.335938 12.777344 56.335938 12.777344 56.335938 18.417969 L 56.335938 23.546875 L 60.757812 23.546875 L 60.734375 17.632812 C 60.699219 11.800781 60.699219 11.722656 60.507812 11.039062 C 60.171875 9.871094 59.746094 9.105469 59.019531 8.371094 C 58.621094 7.972656 58.164062 7.597656 57.832031 7.429688 C 56.828125 6.898438 55.289062 6.644531 54.0625 6.8125 Z M 54.0625 6.8125 "/>
<path style=" stroke:none;fill-rule:nonzero;fill:rgb(0%,0%,0%);fill-opacity:1;" d="M 33.144531 6.925781 C 30.097656 7.578125 27.789062 9.871094 26.894531 13.152344 C 26.742188 13.710938 26.707031 14.074219 26.707031 15.347656 C 26.695312 16.753906 26.714844 16.945312 26.929688 17.722656 C 27.519531 19.847656 28.695312 21.53125 30.382812 22.664062 C 32.582031 24.148438 35.265625 24.382812 37.617188 23.285156 C 38.007812 23.101562 38.5 22.832031 38.71875 22.683594 L 39.117188 22.402344 L 39.117188 23.546875 L 43.355469 23.546875 L 43.355469 7.152344 L 39.117188 7.152344 L 39.117188 8.277344 L 38.628906 7.980469 C 38.042969 7.621094 37.074219 7.203125 36.378906 7.011719 C 35.679688 6.820312 33.871094 6.777344 33.144531 6.925781 Z M 36.484375 11.023438 C 37.902344 11.546875 38.804688 12.8125 39.027344 14.609375 C 39.132812 15.417969 39.046875 16.359375 38.820312 17.136719 C 38.675781 17.632812 38.171875 18.503906 37.835938 18.863281 C 36.632812 20.128906 34.261719 20.355469 32.6875 19.34375 C 31.542969 18.601562 30.859375 17.328125 30.753906 15.699219 C 30.566406 12.765625 32.574219 10.597656 35.289062 10.777344 C 35.644531 10.804688 36.171875 10.910156 36.484375 11.023438 Z M 36.484375 11.023438 "/>
<path style=" stroke:none;fill-rule:nonzero;fill:rgb(0%,0%,0%);fill-opacity:1;" d="M 80.421875 6.925781 C 78.378906 7.316406 76.683594 8.414062 75.546875 10.074219 C 74.507812 11.589844 73.886719 14.039062 74.035156 16.003906 C 74.277344 19.316406 75.84375 21.898438 78.351562 23.144531 C 79.597656 23.773438 80.273438 23.921875 81.867188 23.929688 C 83.640625 23.929688 84.703125 23.667969 86.046875 22.867188 C 86.6875 22.492188 87.742188 21.496094 88.234375 20.800781 C 88.605469 20.265625 89.246094 19.011719 89.1875 18.941406 C 89.132812 18.890625 85.664062 18.148438 85.457031 18.140625 C 85.335938 18.140625 85.214844 18.261719 85.074219 18.53125 C 84.773438 19.097656 84.082031 19.761719 83.441406 20.074219 C 82.992188 20.300781 82.757812 20.363281 82.175781 20.390625 C 80.972656 20.449219 80.023438 20.058594 79.25 19.195312 C 78.855469 18.742188 78.292969 17.609375 78.160156 16.988281 L 78.074219 16.570312 L 83.933594 16.550781 L 89.785156 16.527344 L 89.773438 15.128906 C 89.765625 13.9375 89.730469 13.613281 89.542969 12.890625 C 88.753906 9.890625 86.796875 7.804688 84.054688 7.054688 C 83.179688 6.820312 81.320312 6.75 80.421875 6.925781 Z M 82.652344 10.8125 C 83.363281 10.945312 84.117188 11.363281 84.609375 11.886719 C 85.042969 12.347656 85.628906 13.359375 85.527344 13.464844 C 85.429688 13.5625 78.316406 13.527344 78.316406 13.429688 C 78.316406 13.378906 78.4375 13.097656 78.585938 12.800781 C 79.339844 11.300781 80.984375 10.5 82.652344 10.8125 Z M 82.652344 10.8125 "/>
<path style=" stroke:none;fill-rule:nonzero;fill:rgb(0%,0%,0%);fill-opacity:1;" d="M 0.0078125 7.210938 C 0.0078125 7.253906 1.167969 10.925781 2.585938 15.390625 L 5.15625 23.503906 L 7.503906 23.527344 L 9.855469 23.546875 L 10.117188 22.699219 C 10.261719 22.230469 11.042969 19.769531 11.847656 17.222656 C 13.085938 13.316406 13.328125 12.636719 13.394531 12.820312 C 13.4375 12.941406 14.226562 15.402344 15.152344 18.296875 L 16.824219 23.546875 L 19.160156 23.527344 L 21.496094 23.503906 L 24.074219 15.347656 C 25.496094 10.867188 26.652344 7.1875 26.652344 7.167969 C 26.652344 7.160156 25.617188 7.160156 24.34375 7.167969 L 22.023438 7.195312 L 20.554688 12.359375 C 19.738281 15.199219 19.054688 17.539062 19.03125 17.5625 C 19.011719 17.582031 18.632812 16.535156 18.191406 15.234375 C 17.757812 13.925781 16.960938 11.582031 16.433594 10.003906 L 15.472656 7.152344 L 11.179688 7.152344 L 10.496094 9.175781 C 10.117188 10.289062 9.320312 12.644531 8.730469 14.40625 C 8.144531 16.160156 7.640625 17.582031 7.617188 17.5625 C 7.597656 17.539062 6.914062 15.191406 6.101562 12.359375 L 4.628906 7.195312 L 2.3125 7.167969 C 1.039062 7.160156 0 7.175781 0.0078125 7.210938 Z M 0.0078125 7.210938 "/>
</g>
</svg>
